<svg width="500" height="500" viewBox="0 0 500 500" fill="none" xmlns="http://www.w3.org/2000/svg">
<g clip-path="url(#clip0_58_90)">
<rect width="500" height="500" rx="48" fill="#191919"/>
<path d="M235.32 43.68C259.96 43.68 280.12 47.4133 295.8 54.88C311.853 61.9733 326.04 70.3733 338.36 80.08C345.827 85.68 351.427 86.4266 355.16 82.32C359.267 77.84 362.067 67.5733 363.56 51.52H376.44C375.693 66.08 375.133 83.8133 374.76 104.72C374.387 125.253 374.2 152.693 374.2 187.04H361.32C359.453 169.867 357.027 155.307 354.04 143.36C351.053 131.04 346.947 120.213 341.72 110.88C336.493 101.547 329.027 93.1467 319.32 85.68C309.987 76.3466 299.16 69.44 286.84 64.96C274.52 60.48 261.64 58.24 248.2 58.24C228.04 58.24 210.867 63.6533 196.68 74.48C182.493 84.9333 170.92 99.3066 161.96 117.6C153.373 135.893 147.027 156.613 142.92 179.76C138.813 202.533 136.76 226.24 136.76 250.88C136.76 275.893 138.813 299.973 142.92 323.12C147.4 345.893 154.12 366.24 163.08 384.16C172.413 402.08 184.36 416.267 198.92 426.72C213.48 437.173 230.653 442.4 250.44 442.4C262.76 442.4 275.08 440.16 287.4 435.68C300.093 430.827 310.92 423.92 319.88 414.96C334.44 403.76 344.333 389.947 349.56 373.52C354.787 356.72 358.707 334.507 361.32 306.88H374.2C374.2 342.347 374.387 371.093 374.76 393.12C375.133 414.773 375.693 433.067 376.44 448H363.56C362.067 431.947 359.453 421.867 355.72 417.76C352.36 413.653 346.573 414.213 338.36 419.44C324.547 429.147 309.8 437.733 294.12 445.2C278.813 452.293 259.027 455.84 234.76 455.84C195.187 455.84 160.467 447.813 130.6 431.76C101.107 415.707 78.1467 392.56 61.72 362.32C45.2933 332.08 37.08 295.68 37.08 253.12C37.08 211.307 45.48 174.72 62.28 143.36C79.4533 112 102.787 87.5467 132.28 70C162.147 52.4533 196.493 43.68 235.32 43.68Z" fill="white"/>
<circle cx="429" cy="408" r="40" fill="#FF7850"/>
</g>
<defs>
<clipPath id="clip0_58_90">
<rect width="500" height="500" rx="48" fill="white"/>
</clipPath>
</defs>
</svg>
