<svg width="17" height="17" viewBox="0 0 17 17" fill="none" xmlns="http://www.w3.org/2000/svg">
<g clip-path="url(#clip0_59_21)">
<rect width="17" height="17" rx="3" fill="#191919"/>
<path d="M12.188 6.432C12.032 5.436 11.696 4.686 11.18 4.182C10.676 3.678 10.004 3.42 9.164 3.408C8.54 3.408 7.994 3.552 7.526 3.84C7.058 4.128 6.668 4.512 6.356 4.992C6.056 5.472 5.828 6.018 5.672 6.63C5.528 7.242 5.456 7.872 5.456 8.52C5.456 9.552 5.6 10.47 5.888 11.274C6.188 12.066 6.62 12.69 7.184 13.146C7.748 13.602 8.432 13.83 9.236 13.83C9.992 13.83 10.742 13.638 11.486 13.254C12.23 12.858 12.854 12.312 13.358 11.616L14.222 12.408C13.634 13.212 13.016 13.824 12.368 14.244C11.72 14.652 11.084 14.928 10.46 15.072C9.848 15.216 9.296 15.288 8.804 15.288C7.88 15.288 7.04 15.126 6.284 14.802C5.528 14.466 4.874 14.01 4.322 13.434C3.782 12.846 3.362 12.168 3.062 11.4C2.774 10.62 2.63 9.78 2.63 8.88C2.63 8.064 2.762 7.254 3.026 6.45C3.29 5.646 3.68 4.92 4.196 4.272C4.724 3.612 5.384 3.09 6.176 2.706C6.968 2.31 7.886 2.112 8.93 2.112C9.398 2.112 9.908 2.19 10.46 2.346C11.024 2.49 11.552 2.706 12.044 2.994L11.972 2.238H13.358V6.432H12.188Z" fill="white"/>
<circle cx="14.5" cy="13.5" r="1.5" fill="#FF7850"/>
</g>
<defs>
<clipPath id="clip0_59_21">
<rect width="17" height="17" rx="3" fill="white"/>
</clipPath>
</defs>
</svg>
