<svg width="500" height="500" viewBox="0 0 500 500" fill="none" xmlns="http://www.w3.org/2000/svg">
<g clip-path="url(#clip0_58_90)">
<rect width="500" height="500" rx="96" fill="#191919"/>
<path d="M267.32 49.68C291.96 49.68 312.12 53.4133 327.8 60.88C343.853 67.9733 358.04 76.3733 370.36 86.08C377.827 91.68 383.427 92.4266 387.16 88.32C391.267 83.84 394.067 73.5733 395.56 57.52H408.44C407.693 72.08 407.133 89.8133 406.76 110.72C406.387 131.253 406.2 158.693 406.2 193.04H393.32C391.453 175.867 389.027 161.307 386.04 149.36C383.053 137.04 378.947 126.213 373.72 116.88C368.493 107.547 361.027 99.1467 351.32 91.68C341.987 82.3466 331.16 75.44 318.84 70.96C306.52 66.48 293.64 64.24 280.2 64.24C260.04 64.24 242.867 69.6533 228.68 80.48C214.493 90.9333 202.92 105.307 193.96 123.6C185.373 141.893 179.027 162.613 174.92 185.76C170.813 208.533 168.76 232.24 168.76 256.88C168.76 281.893 170.813 305.973 174.92 329.12C179.4 351.893 186.12 372.24 195.08 390.16C204.413 408.08 216.36 422.267 230.92 432.72C245.48 443.173 262.653 448.4 282.44 448.4C294.76 448.4 307.08 446.16 319.4 441.68C332.093 436.827 342.92 429.92 351.88 420.96C366.44 409.76 376.333 395.947 381.56 379.52C386.787 362.72 390.707 340.507 393.32 312.88H406.2C406.2 348.347 406.387 377.093 406.76 399.12C407.133 420.773 407.693 439.067 408.44 454H395.56C394.067 437.947 391.453 427.867 387.72 423.76C384.36 419.653 378.573 420.213 370.36 425.44C356.547 435.147 341.8 443.733 326.12 451.2C310.813 458.293 291.027 461.84 266.76 461.84C227.187 461.84 192.467 453.813 162.6 437.76C133.107 421.707 110.147 398.56 93.72 368.32C77.2933 338.08 69.08 301.68 69.08 259.12C69.08 217.307 77.48 180.72 94.28 149.36C111.453 118 134.787 93.5467 164.28 76C194.147 58.4533 228.493 49.68 267.32 49.68Z" fill="white"/>
<circle cx="450" cy="424" r="30" fill="#FF7850"/>
</g>
<defs>
<clipPath id="clip0_58_90">
<rect width="500" height="500" rx="96" fill="white"/>
</clipPath>
</defs>
</svg>
